# Blender v3.1.2 OBJ File: ''
# www.blender.org
mtllib carro1.mtl
o DrawCall_202
v -10.810314 13.887607 20.979601
v 15.933570 13.917919 20.921404
v -10.783597 16.558119 20.986889
v 15.960201 16.588512 20.928667
v 17.937716 15.446219 19.491468
v -11.073525 -3.275623 0.712759
v -13.063662 -1.943376 -0.709100
v -12.797661 15.411352 19.558357
v 15.659352 -3.053723 -2.204384
v 17.671719 -1.908513 -0.775964
v 15.670321 -3.245275 0.654519
v -11.086133 -3.085683 -2.146235
v 18.035152 34.516846 1.160527
v 17.766104 16.972176 -19.515896
v -10.685153 35.818771 2.656465
v 16.058706 35.849106 2.598279
v -12.969245 16.937283 -19.448952
v -12.700245 34.481998 1.227461
v 15.752069 15.825382 -20.944427
v -10.991740 15.794999 -20.886227
v -10.698848 35.818764 -0.203017
v 16.045012 35.849098 -0.261227
v 15.776982 18.304388 -20.733383
v -10.966833 18.274010 -20.675253
vt 0.967380 0.051305
vt 0.538081 0.051305
vt 0.967380 0.000971
vt 0.538081 0.000971
vt 0.514310 0.051305
vt 0.967848 0.438842
vt 0.991618 0.438842
vt 0.991618 0.051305
vt 0.537618 0.496993
vt 0.514310 0.438842
vt 0.537618 0.438842
vt 0.967848 0.496993
vt 0.915176 0.008788
vt 0.579569 0.008788
vt 0.915176 0.487714
vt 0.579569 0.487714
vt 0.989289 0.499435
vt 0.516176 0.499435
vt 0.989289 0.997428
vt 0.516176 0.997428
vt 0.579569 0.008788
vt 0.915176 0.008788
vt 0.579569 0.487714
vt 0.915176 0.487714
vt 0.514310 0.005855
vt 0.986960 0.005855
vt 0.514310 0.485753
vt 0.986960 0.485753
vt 0.991618 0.438842
vt 0.967848 0.496993
vt 0.967848 0.438842
vt 0.537618 0.438842
vt 0.538081 0.051305
vt 0.967380 0.051305
vt 0.514310 0.051305
vt 0.514310 0.438842
vt 0.518506 0.008788
vt 0.518506 0.487714
vt 0.967380 0.000971
vt 0.991618 0.051305
vt 0.982296 0.487714
vt 0.982296 0.008788
vt 0.537618 0.496993
vt 0.982296 0.487714
vt 0.982296 0.008788
vt 0.538081 0.000971
vt 0.518506 0.487714
vt 0.518506 0.008788
vn -0.4609 -0.4211 0.7811
vn 0.2546 -0.4012 0.8799
vn -0.2815 0.2711 0.9205
vn 0.3725 0.4463 0.8137
vn 0.8463 -0.1363 0.5150
vn -0.2301 -0.9267 0.2970
vn -0.8297 -0.5524 0.0801
vn -0.8906 0.0982 0.4441
vn 0.2673 -0.9095 -0.3185
vn 0.8728 -0.4717 -0.1256
vn 0.4414 -0.8372 0.3228
vn -0.3525 -0.8012 -0.4835
vn 0.8870 0.4489 0.1083
vn 0.8314 0.1461 -0.5361
vn -0.3646 0.8011 0.4746
vn 0.2878 0.9150 0.2827
vn -0.8886 -0.0711 -0.4532
vn -0.8233 0.5598 -0.0941
vn 0.3614 -0.4411 -0.8215
vn -0.2853 -0.2241 -0.9319
vn -0.2348 0.9148 -0.3286
vn 0.4312 0.8270 -0.3607
vn 0.2292 0.4361 -0.8702
vn -0.4368 0.4616 -0.7721
usemtl whomp
s 1
f 1/1/1 2/2/2 3/3/3
f 3/3/3 2/2/2 4/4/4
f 5/5/5 4/4/4 2/2/2
f 6/6/6 1/1/1 7/7/7
f 7/7/7 1/1/1 8/8/8
f 9/9/9 10/10/10 11/11/11
f 7/7/7 12/12/12 6/6/6
f 11/11/11 2/2/2 6/6/6
f 6/6/6 2/2/2 1/1/1
f 2/2/2 11/11/11 5/5/5
f 5/5/5 11/11/11 10/10/10
f 11/11/11 6/6/6 9/9/9
f 9/9/9 6/6/6 12/12/12
f 3/3/3 8/8/8 1/1/1
f 5/13/5 10/14/10 13/15/13
f 13/15/13 10/14/10 14/16/14
f 3/17/3 4/18/4 15/19/15
f 15/19/15 4/18/4 16/20/16
f 7/21/7 8/22/8 17/23/17
f 17/23/17 8/22/8 18/24/18
f 9/25/9 12/26/12 19/27/19
f 19/27/19 12/26/12 20/28/20
f 18/29/18 15/30/15 21/31/21
f 22/32/22 23/33/23 21/31/21
f 21/31/21 23/33/23 24/34/24
f 23/33/23 22/32/22 14/35/14
f 14/35/14 22/32/22 13/36/13
f 9/37/9 19/38/19 10/14/10
f 10/14/10 19/38/19 14/16/14
f 20/39/20 17/40/17 24/34/24
f 16/41/16 4/42/4 13/15/13
f 13/15/13 4/42/4 5/13/5
f 22/32/22 21/31/21 16/43/16
f 16/43/16 21/31/21 15/30/15
f 16/43/16 13/36/13 22/32/22
f 18/24/18 8/22/8 15/44/15
f 15/44/15 8/22/8 3/45/3
f 21/31/21 24/34/24 18/29/18
f 18/29/18 24/34/24 17/40/17
f 14/35/14 19/46/19 23/33/23
f 20/47/20 12/48/12 17/23/17
f 17/23/17 12/48/12 7/21/7
f 24/34/24 23/33/23 20/39/20
f 20/39/20 23/33/23 19/46/19
o DrawCall_204
v 8.423944 18.486923 27.077803
v 17.279905 -0.000637 38.242031
v 22.892937 10.875288 21.510708
v -12.260049 -0.036015 38.306259
v -3.152231 18.473249 27.102995
v -18.730309 -0.042801 -20.912380
v -18.510515 -0.042888 -16.623575
v -18.603840 15.595842 -26.384935
v -18.404459 10.827743 -16.594309
v 23.182882 0.005801 -21.003590
v 23.307589 15.642954 -26.476135
v -17.823051 10.827648 21.599321
v -18.891073 -0.042520 28.720934
v 23.819012 0.005791 28.627941
v 23.108461 10.875054 -16.684544
v 23.004139 0.005945 -16.713932
vt 0.444401 0.985704
vt 0.444401 0.505312
vt 0.413302 0.699990
vt 0.433223 0.498538
vt 0.051239 0.498538
vt 0.366646 0.987648
vt 0.140176 0.987648
vt 0.497859 0.500958
vt 0.404553 0.505312
vt 0.493002 1.000719
vt 0.404553 0.622511
vt 0.426420 0.502892
vt 0.486682 0.498538
vt 0.437598 0.985704
vt 0.426420 0.992002
vt 0.491056 0.487400
vt 0.471130 0.494174
vt 0.491056 0.000234
vt 0.428854 0.848173
vt 0.413302 0.573596
vt 0.484253 0.852536
vt 0.486682 0.575530
vt 0.459953 0.489820
vt 0.424479 0.002654
vt 0.444401 0.483036
vt 0.473076 0.985704
vt 0.499805 0.704353
vt 0.468701 0.502892
vt 0.493002 1.000719
vt 0.404553 0.622511
vt 0.497859 0.500958
vt 0.404553 0.505312
vt 0.408927 0.502892
vt 0.491056 0.992002
vt 0.495431 0.620091
vt 0.437598 0.987648
vt 0.424479 0.624931
vt 0.475504 0.002654
vt 0.453150 0.002654
vt 0.459953 0.489820
vt 0.433223 0.423479
vt 0.433223 0.000234
vt 0.000209 0.423479
vt 0.000209 0.000234
vt 0.493002 0.502892
vn 0.2859 0.5920 0.7535
vn 0.3513 0.5517 0.7565
vn 0.6957 0.6365 0.3331
vn -0.4587 0.5514 0.6968
vn -0.1861 0.5742 0.7973
vn -0.9984 0.0260 0.0512
vn -0.9996 0.0152 0.0226
vn -0.8821 0.4127 0.2270
vn -0.8150 0.5241 0.2470
vn -0.0017 -0.3303 -0.9439
vn -0.5219 0.8502 0.0689
vn -0.6992 0.6828 0.2119
vn -0.9650 0.1865 0.1845
vn -0.0025 0.5873 -0.8094
vn 0.3356 0.7671 -0.5468
vn -0.0024 0.5873 -0.8094
vn -0.3350 0.9038 -0.2664
vn 0.5683 0.8126 -0.1290
vn 0.9695 0.1693 0.1771
vn 0.7988 0.5937 0.0974
vn -0.5658 0.7771 0.2755
vn 0.9998 -0.0010 0.0198
vn 0.9998 0.0171 0.0123
vn 0.9995 -0.0054 0.0307
vn 0.9999 -0.0096 0.0119
vn -0.8822 0.4127 0.2270
vn -0.5466 0.7989 0.2509
vn -0.0001 0.8991 0.4378
vn 0.3125 0.9396 0.1395
vn -0.9649 0.1866 0.1846
vn -0.9990 0.0424 0.0106
vn -0.3112 0.9086 0.2785
vn -0.5219 0.8502 0.0690
vn 0.3125 0.9396 0.1394
vn -0.9650 0.1865 0.1846
usemtl whomp
s 1
f 25/49/25 26/50/26 27/51/27
f 28/52/28 26/53/26 29/54/29
f 29/54/29 26/53/26 25/55/25
f 30/56/30 31/57/31 32/58/32
f 32/58/32 31/57/31 33/59/33
f 34/60/34 30/61/34 35/62/34
f 35/62/34 30/61/34 32/63/34
f 36/64/35 33/65/36 37/66/37
f 25/67/38 27/68/39 29/69/40
f 29/69/40 27/68/39 36/70/41
f 27/71/42 38/72/43 39/73/44
f 29/74/29 36/75/45 28/76/28
f 35/77/46 39/78/47 34/79/48
f 34/79/48 39/78/47 40/80/49
f 38/81/43 27/51/27 26/50/26
f 32/82/50 33/83/51 35/84/52
f 35/84/52 33/83/51 39/85/53
f 31/86/31 37/66/54 33/65/55
f 40/87/49 39/88/47 38/72/43
f 33/89/56 36/90/57 39/91/58
f 39/91/58 36/90/57 27/92/42
f 37/93/59 28/76/28 36/75/45
